<svg width="84" height="84" viewBox="0 0 84 84" fill="none" xmlns="http://www.w3.org/2000/svg">
<g clip-path="url(#clip0_95_25)">
<mask id="mask0_95_25" style="mask-type:luminance" maskUnits="userSpaceOnUse" x="0" y="0" width="84" height="84">
<path d="M0 0H84V84H0V0Z" fill="white"/>
</mask>
<g mask="url(#mask0_95_25)">
<path fill-rule="evenodd" clip-rule="evenodd" d="M0 0H84V84H0V0ZM64.2145 70.42C60.319 70.42 58.1175 68.39 56.427 65.625L50.0115 69.3525C52.3285 73.9305 57.064 77.4235 64.3965 77.4235C71.8935 77.4235 77.476 73.5315 77.476 66.423C77.476 59.8325 73.689 56.903 66.983 54.0225L65.009 53.179C61.621 51.709 60.1545 50.7535 60.1545 48.384C60.1545 46.4695 61.6245 45.003 63.9345 45.003C66.199 45.003 67.6585 45.9585 69.013 48.384L75.159 44.4395C72.5585 39.865 68.9535 38.1185 63.9345 38.1185C56.8855 38.1185 52.374 42.6265 52.374 48.5485C52.374 54.971 56.154 58.0125 61.852 60.438L63.826 61.285C67.4275 62.86 69.573 63.819 69.573 66.5245C69.573 68.7855 67.4835 70.42 64.2145 70.42ZM33.6245 70.3675C30.912 70.3675 29.7815 68.5125 28.5425 66.3075L22.1165 70.1995C23.9785 74.1405 27.6395 77.4095 33.957 77.4095C40.9535 77.4095 45.745 73.689 45.745 65.5165V38.5665H37.8525V65.4115C37.8525 69.356 36.2145 70.3675 33.621 70.3675" fill="black"/>
</g>
</g>
<defs>
<clipPath id="clip0_95_25">
<rect width="84" height="84" fill="white"/>
</clipPath>
</defs>
</svg>
