<svg width="84" height="84" viewBox="0 0 84 84" fill="none" xmlns="http://www.w3.org/2000/svg">
<g clip-path="url(#clip0_95_57)">
<mask id="mask0_95_57" style="mask-type:luminance" maskUnits="userSpaceOnUse" x="0" y="0" width="84" height="84">
<path d="M0 0H84V84H0V0Z" fill="white"/>
</mask>
<g mask="url(#mask0_95_57)">
<path d="M82.0015 1.22818e-05H1.995C1.73272 1.18782e-05 1.47301 0.0517298 1.23074 0.152207C0.988467 0.252684 0.768385 0.399947 0.583086 0.585571C0.397788 0.771195 0.25091 0.991535 0.150858 1.23398C0.0508056 1.47643 -0.000457068 1.73623 3.07586e-06 1.99851V82.005C-0.00045799 82.2676 0.05092 82.5277 0.151191 82.7704C0.251461 83.013 0.398652 83.2335 0.584322 83.4192C0.769992 83.6049 0.990488 83.7521 1.23317 83.8523C1.47584 83.9526 1.73593 84.004 1.9985 84.0035H82.005C82.2676 84.004 82.5277 83.9526 82.7703 83.8523C83.013 83.7521 83.2335 83.6049 83.4192 83.4192C83.6048 83.2335 83.752 83.013 83.8523 82.7704C83.9526 82.5277 84.004 82.2676 84.0035 82.005V1.99501C84.0035 1.73244 83.9517 1.47244 83.851 1.22994C83.7503 0.987437 83.6027 0.767198 83.4167 0.581854C83.2307 0.396509 83.01 0.249704 82.7671 0.149859C82.5242 0.0500132 82.2641 -0.000909042 82.0015 1.22818e-05ZM50.001 44.891H40.0015V75.999H32.0005V44.891H22.001V37.9995H50.001V44.891ZM52.241 74.221V65.9085C52.241 65.9085 56.784 69.3315 62.2335 69.3315C67.683 69.3315 67.473 65.7685 67.473 65.2785C67.473 60.109 52.031 60.109 52.031 48.65C52.031 33.068 74.5325 39.2175 74.5325 39.2175L74.2525 46.6235C74.2525 46.6235 70.4795 44.107 66.2165 44.107C61.9535 44.107 60.417 46.137 60.417 48.3C60.417 53.8895 75.999 53.333 75.999 64.582C75.999 81.907 52.241 74.2245 52.241 74.2245" fill="black"/>
</g>
</g>
<defs>
<clipPath id="clip0_95_57">
<rect width="84" height="84" fill="white"/>
</clipPath>
</defs>
</svg>
