<svg width="84" height="84" viewBox="0 0 84 84" fill="none" xmlns="http://www.w3.org/2000/svg">
<path d="M13.125 0C10.3402 0 7.66951 1.10625 5.70038 3.07538C3.73125 5.04451 2.625 7.71523 2.625 10.5V73.5C2.625 76.2848 3.73125 78.9555 5.70038 80.9246C7.66951 82.8938 10.3402 84 13.125 84H70.875C73.6598 84 76.3305 82.8938 78.2996 80.9246C80.2688 78.9555 81.375 76.2848 81.375 73.5V10.5C81.375 7.71523 80.2688 5.04451 78.2996 3.07538C76.3305 1.10625 73.6598 0 70.875 0L13.125 0ZM39.375 10.5H44.625C46.0174 10.5 47.3527 11.0531 48.3373 12.0377C49.3219 13.0223 49.875 14.3576 49.875 15.75V31.5C49.875 32.8924 49.3219 34.2277 48.3373 35.2123C47.3527 36.1969 46.0174 36.75 44.625 36.75H39.375C37.9826 36.75 36.6473 36.1969 35.6627 35.2123C34.6781 34.2277 34.125 32.8924 34.125 31.5V15.75C34.125 14.3576 34.6781 13.0223 35.6627 12.0377C36.6473 11.0531 37.9826 10.5 39.375 10.5ZM13.125 15.75C13.125 14.3576 13.6781 13.0223 14.6627 12.0377C15.6473 11.0531 16.9826 10.5 18.375 10.5H23.625C25.0174 10.5 26.3527 11.0531 27.3373 12.0377C28.3219 13.0223 28.875 14.3576 28.875 15.75V52.5C28.875 53.8924 28.3219 55.2277 27.3373 56.2123C26.3527 57.1969 25.0174 57.75 23.625 57.75H18.375C16.9826 57.75 15.6473 57.1969 14.6627 56.2123C13.6781 55.2277 13.125 53.8924 13.125 52.5V15.75ZM60.375 10.5H65.625C67.0174 10.5 68.3527 11.0531 69.3373 12.0377C70.3219 13.0223 70.875 14.3576 70.875 15.75V68.25C70.875 69.6424 70.3219 70.9777 69.3373 71.9623C68.3527 72.9469 67.0174 73.5 65.625 73.5H60.375C58.9826 73.5 57.6473 72.9469 56.6627 71.9623C55.6781 70.9777 55.125 69.6424 55.125 68.25V15.75C55.125 14.3576 55.6781 13.0223 56.6627 12.0377C57.6473 11.0531 58.9826 10.5 60.375 10.5Z" fill="black"/>
</svg>
