<svg width="84" height="84" viewBox="0 0 84 84" fill="none" xmlns="http://www.w3.org/2000/svg">
<path d="M42 7C22.715 7 7 22.715 7 42C7 61.285 22.715 77 42 77C61.285 77 77 61.285 77 42C77 22.715 61.285 7 42 7ZM10.535 42C10.535 37.45 11.515 33.11 13.265 29.19L28.28 70.315C17.78 65.205 10.535 54.46 10.535 42ZM42 73.465C38.92 73.465 35.945 73.01 33.11 72.17L42.56 44.73L52.22 71.225C52.29 71.365 52.36 71.54 52.43 71.645C49.175 72.835 45.675 73.465 42 73.465ZM46.34 27.23C48.23 27.125 49.945 26.915 49.945 26.915C51.625 26.705 51.45 24.22 49.735 24.325C49.735 24.325 44.625 24.71 41.335 24.71C38.255 24.71 33.04 24.325 33.04 24.325C31.36 24.255 31.15 26.845 32.865 26.95C32.865 26.95 34.475 27.16 36.155 27.265L41.055 40.705L34.16 61.355L22.715 27.23C24.605 27.16 26.32 26.95 26.32 26.95C28 26.74 27.825 24.255 26.11 24.36C26.11 24.36 21 24.745 17.71 24.745C17.115 24.745 16.415 24.745 15.68 24.71C21.35 16.17 31.01 10.535 42 10.535C50.19 10.535 57.645 13.65 63.245 18.795C63.105 18.795 62.965 18.76 62.825 18.76C59.745 18.76 57.54 21.455 57.54 24.36C57.54 26.95 59.045 29.155 60.62 31.745C61.81 33.845 63.21 36.54 63.21 40.425C63.21 43.12 62.16 46.235 60.83 50.61L57.68 61.11L46.34 27.23ZM69.615 26.915C73.5444 34.1101 74.5105 42.5547 72.3075 50.4514C70.1046 58.348 64.9066 65.0731 57.82 69.195L67.445 41.405C69.23 36.925 69.825 33.32 69.825 30.135C69.825 28.98 69.755 27.895 69.615 26.915Z" fill="black"/>
</svg>
