<svg width="84" height="84" viewBox="0 0 84 84" fill="none" xmlns="http://www.w3.org/2000/svg">
<path d="M36.75 52.5C35.7583 52.5 34.9277 52.164 34.258 51.492C33.5883 50.82 33.2523 49.9893 33.25 49V45.5H38.5V47.25H45.5V43.75H36.75C35.7583 43.75 34.9277 43.414 34.258 42.742C33.5883 42.07 33.2523 41.2393 33.25 40.25V35C33.25 34.0083 33.586 33.1777 34.258 32.508C34.93 31.8383 35.7607 31.5023 36.75 31.5H47.25C48.2417 31.5 49.0735 31.836 49.7455 32.508C50.4175 33.18 50.7523 34.0107 50.75 35V38.5H45.5V36.75H38.5V40.25H47.25C48.2417 40.25 49.0735 40.586 49.7455 41.258C50.4175 41.93 50.7523 42.7607 50.75 43.75V49C50.75 49.9917 50.414 50.8235 49.742 51.4955C49.07 52.1675 48.2393 52.5023 47.25 52.5H36.75ZM59.5 52.5C58.5083 52.5 57.6777 52.164 57.008 51.492C56.3383 50.82 56.0023 49.9893 56 49V45.5H61.25V47.25H68.25V43.75H59.5C58.5083 43.75 57.6777 43.414 57.008 42.742C56.3383 42.07 56.0023 41.2393 56 40.25V35C56 34.0083 56.336 33.1777 57.008 32.508C57.68 31.8383 58.5107 31.5023 59.5 31.5H70C70.9917 31.5 71.8235 31.836 72.4955 32.508C73.1675 33.18 73.5023 34.0107 73.5 35V38.5H68.25V36.75H61.25V40.25H70C70.9917 40.25 71.8235 40.586 72.4955 41.258C73.1675 41.93 73.5023 42.7607 73.5 43.75V49C73.5 49.9917 73.164 50.8235 72.492 51.4955C71.82 52.1675 70.9893 52.5023 70 52.5H59.5ZM14 52.5C13.0083 52.5 12.1777 52.164 11.508 51.492C10.8383 50.82 10.5023 49.9893 10.5 49V35C10.5 34.0083 10.836 33.1777 11.508 32.508C12.18 31.8383 13.0107 31.5023 14 31.5H24.5C25.4917 31.5 26.3235 31.836 26.9955 32.508C27.6675 33.18 28.0023 34.0107 28 35V38.5H22.75V36.75H15.75V47.25H22.75V45.5H28V49C28 49.9917 27.664 50.8235 26.992 51.4955C26.32 52.1675 25.4893 52.5023 24.5 52.5H14Z" fill="black"/>
</svg>
