<svg width="84" height="84" viewBox="0 0 84 84" fill="none" xmlns="http://www.w3.org/2000/svg">
<path d="M9.1 37.0651L29.33 16.8001L35.245 22.7501C34.405 25.7251 35.77 28.9801 38.5 30.5551V49.9451C36.4 51.1351 35 53.4101 35 56.0001C35 57.8566 35.7375 59.6371 37.0503 60.9499C38.363 62.2626 40.1435 63.0001 42 63.0001C43.8565 63.0001 45.637 62.2626 46.9497 60.9499C48.2625 59.6371 49 57.8566 49 56.0001C49 53.4101 47.6 51.1351 45.5 49.9451V32.9351L52.745 40.2501C52.5 40.7751 52.5 41.3701 52.5 42.0001C52.5 43.8566 53.2375 45.6371 54.5503 46.9499C55.863 48.2626 57.6435 49.0001 59.5 49.0001C61.3565 49.0001 63.137 48.2626 64.4497 46.9499C65.7625 45.6371 66.5 43.8566 66.5 42.0001C66.5 40.1436 65.7625 38.3631 64.4497 37.0504C63.137 35.7376 61.3565 35.0001 59.5 35.0001C58.87 35.0001 58.275 35.0001 57.75 35.2451L48.755 26.2501C49.1896 24.629 49.0211 22.9053 48.2808 21.3991C47.5406 19.8928 46.2789 18.7064 44.73 18.0601C43.225 17.5001 41.65 17.3601 40.25 17.7451L34.3 11.8301L37.065 9.10012C39.795 6.33512 44.205 6.33512 46.935 9.10012L74.9 37.0651C77.665 39.7951 77.665 44.2051 74.9 46.9351L46.935 74.9001C44.205 77.6651 39.795 77.6651 37.065 74.9001L9.1 46.9351C6.335 44.2051 6.335 39.7951 9.1 37.0651Z" fill="black"/>
</svg>
