<svg width="84" height="84" viewBox="0 0 84 84" fill="none" xmlns="http://www.w3.org/2000/svg">
<path d="M42 35.3849C45.605 35.3849 48.545 38.3249 48.545 41.9999C48.545 45.4999 45.605 48.4749 42 48.4749C38.395 48.4749 35.455 45.4999 35.455 41.9999C35.455 38.3249 38.395 35.3849 42 35.3849ZM25.795 69.9999C28 71.3299 32.83 69.2999 38.395 64.0499C36.575 61.9849 34.79 59.7449 33.11 57.3999C30.2898 57.1281 27.4859 56.7075 24.71 56.14C22.925 63.63 23.59 68.7749 25.795 69.9999ZM28.28 49.9099L27.265 48.1249C26.88 49.1399 26.495 50.1549 26.25 51.1349C27.195 51.3449 28.245 51.5199 29.33 51.6949L28.28 49.9099ZM51.17 47.2499L54.005 41.9999L51.17 36.7499C50.12 34.8949 49 33.2499 47.985 31.6049C46.095 31.4999 44.1 31.4999 42 31.4999C39.9 31.4999 37.905 31.4999 36.015 31.6049C35 33.2499 33.88 34.8949 32.83 36.7499L29.995 41.9999L32.83 47.2499C33.88 49.1049 35 50.7499 36.015 52.3949C37.905 52.4999 39.9 52.4999 42 52.4999C44.1 52.4999 46.095 52.4999 47.985 52.3949C49 50.7499 50.12 49.1049 51.17 47.2499ZM42 23.7299C41.335 24.4999 40.635 25.3049 39.935 26.2499H44.065C43.365 25.3049 42.665 24.4999 42 23.7299ZM42 60.2699C42.665 59.4999 43.365 58.6949 44.065 57.7499H39.935C40.635 58.6949 41.335 59.4999 42 60.2699ZM58.17 13.9999C56 12.6699 51.17 14.6999 45.605 19.9499C47.425 22.0149 49.21 24.2549 50.89 26.5999C53.76 26.8799 56.595 27.2999 59.29 27.8599C61.075 20.3699 60.41 15.2249 58.17 13.9999ZM55.72 34.0899L56.735 35.8749C57.12 34.8599 57.505 33.8449 57.75 32.8649C56.805 32.6549 55.755 32.4799 54.67 32.3049L55.72 34.0899ZM60.795 9.41495C65.94 12.3549 66.5 20.0899 64.33 29.1199C73.22 31.7449 79.625 36.0849 79.625 41.9999C79.625 47.9149 73.22 52.2549 64.33 54.8799C66.5 63.9099 65.94 71.6449 60.795 74.5849C55.685 77.5249 48.72 74.1649 42 67.7599C35.28 74.1649 28.315 77.5249 23.17 74.5849C18.06 71.6449 17.5 63.9099 19.67 54.8799C10.78 52.2549 4.375 47.9149 4.375 41.9999C4.375 36.0849 10.78 31.7449 19.67 29.1199C17.5 20.0899 18.06 12.3549 23.17 9.41495C28.315 6.47495 35.28 9.83495 42 16.2399C48.72 9.83495 55.685 6.47495 60.795 9.41495ZM59.78 41.9999C60.97 44.6249 62.02 47.2499 62.895 49.9099C70.245 47.7049 74.375 44.5549 74.375 41.9999C74.375 39.4449 70.245 36.2949 62.895 34.0899C62.02 36.7499 60.97 39.3749 59.78 41.9999ZM24.22 41.9999C23.03 39.3749 21.98 36.7499 21.105 34.0899C13.755 36.2949 9.625 39.4449 9.625 41.9999C9.625 44.5549 13.755 47.7049 21.105 49.9099C21.98 47.2499 23.03 44.6249 24.22 41.9999ZM55.72 49.9099L54.67 51.6949C55.755 51.5199 56.805 51.3449 57.75 51.1349C57.505 50.1549 57.12 49.1399 56.735 48.1249L55.72 49.9099ZM45.605 64.0499C51.17 69.2999 56 71.3299 58.17 69.9999C60.41 68.7749 61.075 63.63 59.29 56.14C56.595 56.7 53.76 57.1199 50.89 57.3999C49.21 59.7449 47.425 61.9849 45.605 64.0499ZM28.28 34.0899L29.33 32.3049C28.245 32.4799 27.195 32.6549 26.25 32.8649C26.495 33.8449 26.88 34.8599 27.265 35.8749L28.28 34.0899ZM38.395 19.9499C32.83 14.6999 28 12.6699 25.795 13.9999C23.59 15.2249 22.925 20.3699 24.71 27.8599C27.4859 27.2924 30.2898 26.8718 33.11 26.5999C34.79 24.2549 36.575 22.0149 38.395 19.9499Z" fill="black"/>
</svg>
