<svg width="84" height="84" viewBox="0 0 84 84" fill="none" xmlns="http://www.w3.org/2000/svg">
<path d="M42 21C32.655 21 26.845 25.655 24.5 35C28 30.345 32.095 28.595 36.75 29.75C39.41 30.415 41.335 32.34 43.435 34.475C46.865 37.975 50.75 42 59.5 42C68.845 42 74.655 37.345 77 28C73.5 32.655 69.405 34.405 64.75 33.25C62.09 32.585 60.2 30.66 58.065 28.525C54.635 25.025 50.75 21 42 21ZM24.5 42C15.155 42 9.345 46.655 7 56C10.5 51.345 14.595 49.595 19.25 50.75C21.91 51.415 23.8 53.34 25.935 55.475C29.365 58.975 33.25 63 42 63C51.345 63 57.155 58.345 59.5 49C56 53.655 51.905 55.405 47.25 54.25C44.59 53.585 42.7 51.66 40.565 49.525C37.135 46.025 33.25 42 24.5 42Z" fill="black"/>
</svg>
