<svg width="84" height="84" viewBox="0 0 84 84" fill="none" xmlns="http://www.w3.org/2000/svg">
<path d="M54.733 15.981L54.929 16.093C52.276 17.493 44.695 22.008 44.695 27.755C44.695 29.694 45.8045 31.563 46.844 33.32C47.761 34.867 48.6255 36.323 48.6255 37.653C48.6255 41.0025 45.36 43.603 43.5155 44.8L43.1655 44.597C43.862 43.7465 44.7195 42.322 44.7195 40.803C44.7195 38.71 43.645 37.037 42.5565 35.3395C41.4295 33.586 40.2885 31.8045 40.2885 29.4945C40.2885 21.4725 51.191 17.1675 54.733 15.981ZM40.4005 20.223C44.786 16.303 49.5775 12.019 49.5775 5.57549C49.5775 2.65999 48.384 0.79799 47.7925 0.0524902L47.6 0.16099C47.74 0.74199 47.95 1.81299 47.95 3.21299C47.95 9.07899 42.973 13.188 38.157 17.171C33.6385 20.909 29.26 24.528 29.26 29.372C29.26 36.3195 36.113 40.593 39.0075 42.399L39.228 42.539L39.403 42.434C39.2467 42.2613 39.081 42.084 38.906 41.902C36.68 39.5325 33.299 35.938 33.299 30.4395C33.299 26.579 36.7045 23.5305 40.4005 20.223ZM38.822 54.901C44.996 54.901 49.315 54.0155 51.233 53.473L54.145 55.153C51.3695 56.5635 45.2165 57.638 38.808 57.638C31.2725 57.638 23.0335 56.021 23.009 53.865C22.9915 52.675 25.6865 51.884 28.5915 51.373L28.7665 51.4745C28.7665 51.4745 27.783 51.828 27.7935 52.64C27.8075 53.865 32.7635 54.901 38.8185 54.901M26.467 62.4995C26.467 61.075 29.4035 60.3995 30.7475 60.13L30.9225 60.235C30.6915 60.4065 30.5655 60.641 30.5655 60.8405C30.5655 61.775 33.8205 62.629 38.8115 62.629C43.2845 62.629 45.7695 62.0795 47.2465 61.726L50.7115 63.7315C50.554 63.8435 47.1415 65.989 38.8045 65.989C32.746 65.989 26.467 64.477 26.467 62.4995ZM56.3185 56.4515C60.4485 54.096 64.582 51.31 64.8165 46.837C64.9705 43.9005 62.272 41.748 59.3215 42.322L59.479 41.93V41.923C60.221 41.699 61.138 41.517 62.1635 41.517C65.464 41.517 67.9945 43.4945 68.3165 46.263C68.9675 51.814 61.0995 55.426 56.693 56.6685L56.3185 56.4515ZM63.231 66.9095C63.266 70.7245 50.288 72.9925 38.689 73.094C28.6755 73.1815 12.53 71.2915 12.495 67.4765C12.474 64.841 19.495 63.0175 23.31 62.4925L23.7125 62.72C23.7125 62.72 18.025 64.0395 18.0425 66.437C18.0635 68.8275 30.03 70.896 38.6715 70.8225C52.059 70.7035 61.1205 68.523 62.1915 65.5655L62.3805 65.457C62.7725 65.744 63.2205 66.2165 63.231 66.9095ZM22.505 74.6795C27.4573 75.4707 32.4666 75.8512 37.4815 75.817C59.2095 75.628 65.3415 70.287 66.2865 69.125L66.451 69.223C66.227 73.451 54.7365 76.965 40.565 77.0875C33.3515 77.1505 26.7855 76.3175 22.0675 74.935L22.505 74.6795ZM31.612 42.189C27.8355 42.4795 19.726 43.68 19.726 45.815C19.726 47.432 27.16 49.7105 38.808 49.7105C49.287 49.7105 55.902 47.733 57.4455 46.9805L55.195 45.668C53.585 46.1055 47.6035 47.439 38.808 47.439C33.628 47.439 24.703 46.4835 24.703 45.024C24.703 43.715 30.2715 42.707 31.871 42.4165L31.9725 42.399L31.612 42.189Z" fill="black"/>
</svg>
