<svg width="84" height="84" viewBox="0 0 84 84" fill="none" xmlns="http://www.w3.org/2000/svg">
<path d="M34.405 26.5649C37.2645 26.5824 39.4345 27.3979 40.852 28.9869C42.1925 30.4954 42.8365 32.6759 42.7665 35.4619L42.7175 35.6754C42.6731 35.7754 42.6003 35.8602 42.5083 35.9192C42.4162 35.9783 42.3089 36.0092 42.1995 36.0079H36.393C36.2109 36.0071 36.0364 35.9353 35.9063 35.8079C35.7763 35.6805 35.701 35.5074 35.6965 35.3254C35.7012 33.8461 35.2462 33.0178 34.3315 32.8404L33.9115 32.8019C32.7145 32.8019 31.9375 33.5404 31.9165 34.8284C31.892 36.2634 32.704 37.5689 35.014 39.8089C38.052 42.6649 39.2735 45.1954 39.214 48.5344C39.1195 53.9384 35.4445 57.4349 29.8585 57.4349C27.006 57.4349 24.8255 56.6684 23.373 55.1634C21.903 53.6339 21.231 51.3904 21.371 48.4924C21.3776 48.345 21.4387 48.2053 21.5425 48.1004C21.6476 47.9988 21.7883 47.9423 21.9345 47.9429H27.9405C28.0239 47.9482 28.1057 47.9684 28.182 48.0024C28.3199 48.0744 28.4242 48.1975 28.4725 48.3454C28.4912 48.4154 28.4935 48.4854 28.4795 48.5554C28.413 49.5984 28.5985 50.3789 29.008 50.8129C29.1482 50.9577 29.3181 51.0705 29.506 51.1436C29.6938 51.2167 29.8953 51.2484 30.0965 51.2364C31.206 51.2364 31.857 50.4489 31.8815 49.0839C31.9025 47.9044 31.5245 46.8649 29.4945 44.7719C26.866 42.2029 24.5105 39.5499 24.584 35.3779C24.593 34.2101 24.8375 33.0561 25.303 31.985C25.7685 30.9139 26.4453 29.9478 27.293 29.1444C29.092 27.4574 31.549 26.5649 34.405 26.5649ZM14.1645 26.6629C16.779 26.6419 18.8335 27.4469 20.2615 29.0604C21.7735 30.7649 22.54 33.3339 22.5435 36.6974C22.5416 36.8454 22.4813 36.9865 22.3758 37.0901C22.2702 37.1937 22.1279 37.2514 21.98 37.2504H15.6765C15.5665 37.2454 15.462 37.2006 15.3825 37.1244C15.3068 37.0435 15.2632 36.9377 15.26 36.8269C15.211 34.6464 14.602 33.5159 13.398 33.3829L13.1495 33.3689C10.7345 33.3724 9.30999 36.6519 8.55399 38.4719C7.48504 41.0184 6.97653 43.7651 7.06299 46.5254C7.11549 47.8064 7.32199 49.6054 8.53299 50.3509C9.61099 51.0124 11.1475 50.5749 12.0785 49.8399C13.006 49.1084 13.755 47.8414 14.07 46.6864C14.1167 46.5231 14.1178 46.4088 14.0735 46.3434C14.0502 46.3178 14.0128 46.3003 13.9615 46.2909L12.1975 46.2769C12.1119 46.2745 12.0277 46.2545 11.9501 46.2184C11.8725 46.1823 11.803 46.1308 11.746 46.0669C11.7008 46.0181 11.6704 45.9574 11.6585 45.8919C11.6398 45.8279 11.6398 45.7599 11.6585 45.6959L12.7645 40.8869C12.7969 40.7618 12.867 40.6497 12.9653 40.5659C13.0636 40.482 13.1853 40.4303 13.314 40.4179V40.4074H23.9365L24.01 40.4109C24.2865 40.4459 24.4825 40.7049 24.479 40.9849V40.9989L23.373 45.7974C23.3135 46.0704 23.0405 46.2699 22.729 46.2699H21.3955C21.3473 46.2703 21.3005 46.2861 21.2621 46.3151C21.2236 46.3441 21.1955 46.3847 21.182 46.4309C19.95 50.6099 18.2805 53.4869 16.079 55.2124C14.203 56.6824 11.8965 57.3684 8.80949 57.3684C6.03749 57.3684 4.16849 56.4759 2.58299 54.7154C0.489986 52.3844 -0.374514 48.5764 0.150486 43.9809C1.09549 35.3604 5.56149 26.6629 14.1645 26.6629ZM73.556 27.1249C80.591 27.1249 84.105 30.3169 83.9965 36.6134C83.867 43.9914 79.373 49.4164 72.6075 50.6694C71.6438 50.8398 70.672 50.9191 69.692 50.9074L66.423 50.8934C66.3703 50.8951 66.3201 50.9166 66.2825 50.9536C66.2449 50.9905 66.2226 51.0403 66.22 51.0929C66.22 51.1279 66.2293 51.1618 66.248 51.1944C66.2698 51.2227 66.2957 51.2475 66.325 51.2679L69.104 52.7169C69.3327 52.8406 69.4213 53.0319 69.37 53.2909L68.6455 56.5564C68.586 56.8294 68.3655 56.9869 68.047 56.9869H62.0865C62.0011 56.9847 61.9169 56.9669 61.838 56.9344C61.7615 56.896 61.6927 56.8438 61.635 56.7804C61.5916 56.7295 61.5611 56.6689 61.5459 56.6038C61.5306 56.5387 61.5312 56.4708 61.5475 56.4059L68.1835 27.5624C68.25 27.2614 68.5335 27.1284 68.7855 27.1284L73.556 27.1249ZM60.4555 27.1669C60.5205 27.1961 60.5807 27.2351 60.634 27.2824C60.6829 27.3365 60.723 27.3979 60.753 27.4644C60.7761 27.5309 60.7891 27.6006 60.7915 27.6709L60.753 56.4164C60.7637 56.4841 60.7601 56.5533 60.7425 56.6194C60.7223 56.6905 60.6863 56.756 60.6372 56.8111C60.5881 56.8663 60.5272 56.9096 60.459 56.9379C60.389 56.9706 60.3122 56.9861 60.235 56.9834H53.8895C53.7445 56.9832 53.6052 56.9268 53.501 56.8259C53.4536 56.7727 53.4147 56.7125 53.3855 56.6474C53.3608 56.58 53.3466 56.5092 53.3435 56.4374L53.48 53.6479C53.487 53.3434 53.48 53.2594 53.3015 53.2384L53.0635 53.2314H47.0645C46.6305 53.2314 46.599 53.2699 46.445 53.6689L45.199 56.6684C45.087 56.8784 44.863 56.9834 44.527 56.9834H38.2445C37.863 56.9834 37.59 56.6054 37.7335 56.2519L50.7465 27.5554C50.834 27.3839 50.967 27.1249 51.268 27.1249H60.249C60.319 27.1249 60.3878 27.1389 60.4555 27.1669ZM54.25 34.9474C54.222 34.8354 54.131 34.8459 54.0575 34.9929C54.0054 35.099 53.9586 35.2076 53.9175 35.3184L49.4235 46.4589L49.3675 46.6269C49.3628 46.6503 49.3617 46.6724 49.364 46.6934L49.3885 46.7529C49.4023 46.771 49.4203 46.7854 49.441 46.7949C49.459 46.8064 49.4793 46.8136 49.5005 46.8159L53.2525 46.8649C53.669 46.8299 53.69 46.8089 53.732 46.3854C53.739 46.2349 54.271 35.0769 54.25 34.9474ZM70.392 33.5369C70.3395 33.5386 70.2896 33.5598 70.252 33.5964C70.2141 33.6335 70.1916 33.6835 70.189 33.7364C70.1896 33.7727 70.1996 33.8083 70.218 33.8395C70.2364 33.8708 70.2626 33.8968 70.294 33.9149L73.241 35.4724C73.388 35.5529 73.3915 35.6929 73.3425 35.9344C73.318 36.0429 71.4525 44.2469 71.456 44.2539C71.4665 44.2644 71.5225 44.2924 71.8025 44.2924H71.9285C75.061 44.1664 76.769 40.4634 76.832 36.8689C76.8635 34.9264 76.202 33.7329 75.0015 33.5579L74.753 33.5369H70.392Z" fill="black"/>
</svg>
