<svg width="106" height="446" viewBox="0 0 106 446" fill="none" xmlns="http://www.w3.org/2000/svg">
<path d="M64.8545 1.5L64.9746 2.86914L103.494 442.869L103.637 444.5H86.1426C84.6664 444.5 83.4683 443.716 82.5547 442.571C81.662 441.453 80.9472 439.887 80.3555 437.988L80.3496 437.97L80.3447 437.951C79.222 433.991 78.3931 429.04 77.8438 423.125L77.8428 423.115L77.8418 423.104L71.2822 340.489H34.7178L28.1582 423.104L28.1562 423.12C27.696 428.247 26.889 432.982 25.7295 437.322L25.7275 437.331L25.7246 437.341C25.1388 439.429 24.4418 441.135 23.583 442.35C22.718 443.573 21.5314 444.5 19.9932 444.5H2.3623L2.50586 442.869L41.0928 2.86914L41.2129 1.5H64.8545ZM52.9961 109.603C52.8181 112.163 52.6379 114.672 52.4541 117.13C51.7738 126.628 51.1151 134.919 50.4795 142.001L50.4805 142.002L39.9912 274.415H66.0762L55.5195 141.396V141.395C54.884 134.314 54.2032 126.024 53.4775 116.525V116.519C53.3157 114.259 53.1554 111.953 52.9961 109.603Z" fill="black" stroke="#FFFBE8" stroke-width="3"/>
</svg>
