<svg width="91" height="446" viewBox="0 0 91 446" fill="none" xmlns="http://www.w3.org/2000/svg">
<path d="M13.8047 1.5C14.8419 1.50003 15.8215 1.73092 16.6738 2.26172C17.8493 2.74516 18.579 3.93688 19.0723 5.11816C19.6316 6.26142 20.1339 7.7751 20.5938 9.61035C20.9444 11.0098 21.3181 12.7449 21.7148 14.8105L22.1191 16.9863L22.1201 16.9902L68.5586 278.366C68.5438 277.347 68.5286 276.335 68.5156 275.328V275.327C68.4244 268.044 68.3789 261.164 68.3789 254.688V1.5H89.5V444.5H77.4004C74.9524 444.5 73.2129 442.75 72.0205 440.326L72.0088 440.304L71.999 440.281C70.8254 437.679 69.7279 433.482 68.6768 427.808L68.6748 427.797L22.4639 167.044C22.4704 167.85 22.479 168.655 22.4844 169.458C22.5756 176.337 22.6211 182.712 22.6211 188.582V444.5H1.5V1.5H13.8047Z" fill="black" stroke="#FFFBE8" stroke-width="3"/>
</svg>
