<svg width="86" height="446" viewBox="0 0 86 446" fill="none" xmlns="http://www.w3.org/2000/svg">
<path d="M34.1357 1.5C41.6087 1.50001 47.939 5.02702 53.083 11.7959H53.082C58.1576 18.2729 62.2519 27.2659 65.4199 38.6846C68.5911 50.1149 70.902 63.7519 72.3643 79.5801L72.6289 82.5273C73.9135 97.3607 74.5557 113.609 74.5557 131.271C74.5557 145.857 74.0758 159.739 73.1172 172.918L73.1182 172.919C72.2051 185.895 70.8565 197.769 69.0723 208.538C67.2883 219.305 65.0895 228.876 62.4697 237.245C59.9596 245.264 57.0881 251.851 53.8398 256.971C55.083 260.144 56.2357 263.912 57.3018 268.266C58.4568 272.78 59.4909 278.192 60.4062 284.493H60.4053L83.4844 442.783L83.7344 444.5H63.4961C60.7729 444.5 58.9249 442.19 57.6445 439.192C56.3115 436.071 55.2773 431.512 54.498 425.608V425.607L35.6543 290.678V290.677C34.8842 285.449 34.0385 281.753 33.1494 279.497L33.1455 279.486L33.1406 279.475C32.7375 278.4 32.2819 277.731 31.8418 277.34C31.4327 276.977 30.9901 276.809 30.4482 276.809H24.9844V444.5H1.5V1.5H34.1357ZM24.9844 209.825H33.999C36.6597 209.825 39.1097 208.411 41.3379 205.06C43.6306 201.406 45.5596 196.425 47.084 190.053C48.6099 183.473 49.7383 175.768 50.4619 166.93C51.1864 158.082 51.5488 148.42 51.5488 137.941C51.5488 117.169 49.9798 101.151 46.8906 89.8174L46.8896 89.8125C45.3679 84.1474 43.4809 80.0583 41.3066 77.4121C39.1705 74.8124 36.7946 73.6387 34.1357 73.6387H24.9844V209.825Z" fill="black" stroke="#FFFBE8" stroke-width="3"/>
</svg>
