<svg width="75" height="456" viewBox="0 0 75 456" fill="none" xmlns="http://www.w3.org/2000/svg">
<path d="M40.998 1.5C47.7374 1.50002 53.6238 6.20657 58.7568 14.6426C63.966 22.9278 68.3065 34.4318 71.8232 49.0762L71.8857 49.3359L71.8545 49.6016L66.8125 92.3867L66.8086 92.4141C66.1704 97.0832 65.4995 100.621 64.7812 102.967L64.7773 102.978C64.4324 104.075 63.9913 105.043 63.3936 105.763C62.7685 106.515 61.9053 107.062 60.8252 107.062C59.5497 107.062 58.6351 106.128 58.04 105.3C57.3865 104.39 56.765 103.116 56.1572 101.555L56.1396 101.508C55.016 98.3053 53.6881 94.8956 52.1543 91.2793C50.6423 87.7144 48.9123 84.458 46.9678 81.5059L46.9443 81.4688C45.0931 78.4708 43.1608 77.3252 41.2021 77.3252C39.4336 77.3253 37.7735 78.1828 36.2051 80.2871C34.6054 82.4334 33.1896 85.778 32.0293 90.4482L32.0273 90.4561C29.7083 99.5921 28.5303 111.692 28.5303 126.803C28.5303 136.447 29.1621 144.428 30.4062 150.77L30.6543 151.921C31.9161 157.622 33.5048 162.59 35.4111 166.838C37.5089 171.41 39.8665 175.467 42.4785 179.016C45.1771 182.682 47.9394 186.749 50.7656 191.214L51.3027 192.034C53.9828 196.186 56.5886 201.041 59.124 206.591C61.8576 212.574 64.2689 220.058 66.3721 229.016L66.7715 230.725C68.7404 239.385 70.3194 249.808 71.5156 261.982C72.8399 274.795 73.5 290.426 73.5 308.866C73.5 328.932 72.7038 347.792 71.1094 365.441C69.5607 382.885 67.3034 398.226 64.333 411.454L64.332 411.459C61.3617 424.484 57.6628 434.862 53.1963 442.528L53.1953 442.527C48.7762 450.19 43.4752 454.5 37.1826 454.5C33.5638 454.5 30.0862 452.859 26.7734 449.865L26.7656 449.857C23.5287 446.89 20.4415 442.808 17.4854 437.665L17.4805 437.656C14.5668 432.507 11.8302 426.357 9.26562 419.219C6.69653 412.068 4.45436 404.115 2.53516 395.364L2.47754 395.103L2.51465 394.836L8.51074 351.748L8.51172 351.737L8.51367 351.726C9.02312 348.426 9.70436 345.672 10.5811 343.503C11.0077 342.35 11.4855 341.366 12.0469 340.643C12.6037 339.925 13.4349 339.228 14.5615 339.228L14.8291 339.241C16.146 339.372 17.0839 340.449 17.7158 341.437C18.461 342.601 19.1711 344.254 19.8662 346.317C21.2242 350.349 22.7875 354.788 24.5557 359.634C26.2996 364.413 28.3067 368.782 30.5742 372.743L30.7832 373.093C32.9467 376.642 35.2826 378.067 37.7275 378.067C39.5161 378.067 41.2257 377.188 42.8682 375.021C44.5384 372.817 46.0436 369.39 47.3164 364.616L47.3174 364.61H47.3184C49.8996 355.097 51.2178 340.793 51.2178 321.611C51.2178 310.532 50.5608 301.634 49.2686 294.887L49.2666 294.878C48.0091 288.078 46.3571 282.435 44.3311 277.924C42.2855 273.369 39.9675 269.545 37.3896 266.432L37.3623 266.396C34.6637 262.934 31.8991 259.17 29.0693 255.104C26.1949 250.975 23.4067 246.044 20.7002 240.324C17.9551 234.523 15.5411 226.92 13.4385 217.557C11.3307 208.17 9.6197 196.572 8.29883 182.779L8.29785 182.774C7.02025 168.957 6.38379 151.813 6.38379 131.354C6.3838 114.925 7.11205 98.9971 8.57031 83.5732C10.0288 68.1475 12.1733 54.4228 15.0088 42.4062C17.8437 30.3921 21.3369 20.6368 25.5176 13.1895L25.5215 13.1836C29.7577 5.7202 34.8782 1.5 40.998 1.5Z" fill="black" stroke="#FFFBE8" stroke-width="3"/>
</svg>
