<svg width="90" height="451" viewBox="0 0 90 451" fill="none" xmlns="http://www.w3.org/2000/svg">
<path d="M25.1055 1.5V265.086C25.1055 281.235 25.5847 295.758 26.543 308.655C27.5016 321.558 28.8925 332.515 30.708 341.535C32.5238 350.557 34.7281 357.471 37.2842 362.345L37.5254 362.776C40.0174 367.15 42.5625 368.845 45.0342 368.845C47.5334 368.845 50.1419 367.049 52.7158 362.345C55.2719 357.471 57.4762 350.557 59.292 341.535C61.1075 332.515 62.4984 321.558 63.457 308.655C64.4153 295.758 64.8945 281.235 64.8945 265.086V1.5H88.5V265.086C88.5 291.816 87.5144 316.431 85.541 338.929C83.614 361.218 80.836 380.499 77.2002 396.76C73.567 413.009 69.1301 425.809 63.8525 435.091C58.5838 444.357 52.3511 449.5 45.0342 449.5C37.7198 449.5 31.4647 444.36 26.1504 435.096L26.1475 435.091C20.8699 425.809 16.433 413.009 12.7998 396.76C9.16415 380.5 6.36351 361.219 4.39062 338.93V338.926C2.46325 316.429 1.5 291.815 1.5 265.086V1.5H25.1055Z" fill="black" stroke="#FFFBE8" stroke-width="3"/>
</svg>
